w200b1r100.ufo
<glyph name="_3" format="2">
  <advance width="200"/>
  <unicode hex="0103"/>
  
  <outline>
    <component base="cap" xOffset="0" yOffset="0" />
    <component base="cap" xOffset="0" yOffset="29" />
    <contour>
      <point x="0" y="1" type="line"/>
      <point x="0" y="30" type="line"/>
      <point x="1" y="30" type="line"/>
      <point x="1" y="1" type="line"/>
    </contour>
  </outline>
</glyph>
<glyph name="_18" format="2">
  <advance width="200"/>
  <unicode hex="0112"/>
  <unicode hex="006A"/>
  <outline>
    <component base="cap" xOffset="0" yOffset="0" />
    <component base="cap" xOffset="0" yOffset="179" />
    <contour>
      <point x="0" y="1" type="line"/>
      <point x="0" y="180" type="line"/>
      <point x="1" y="180" type="line"/>
      <point x="1" y="1" type="line"/>
    </contour>
  </outline>
</glyph>
<glyph name="_35" format="2">
  <advance width="200"/>
  <unicode hex="0123"/>
  
  <outline>
    <component base="cap" xOffset="0" yOffset="0" />
    <component base="cap" xOffset="0" yOffset="349" />
    <contour>
      <point x="0" y="1" type="line"/>
      <point x="0" y="350" type="line"/>
      <point x="1" y="350" type="line"/>
      <point x="1" y="1" type="line"/>
    </contour>
  </outline>
</glyph>
<glyph name="_53" format="2">
  <advance width="200"/>
  <unicode hex="0135"/>
  
  <outline>
    <component base="cap" xOffset="0" yOffset="0" />
    <component base="cap" xOffset="0" yOffset="529" />
    <contour>
      <point x="0" y="1" type="line"/>
      <point x="0" y="530" type="line"/>
      <point x="1" y="530" type="line"/>
      <point x="1" y="1" type="line"/>
    </contour>
  </outline>
</glyph>
<glyph name="_66" format="2">
  <advance width="200"/>
  <unicode hex="0142"/>
  <unicode hex="0048"/>
  <outline>
    <component base="cap" xOffset="0" yOffset="0" />
    <component base="cap" xOffset="0" yOffset="659" />
    <contour>
      <point x="0" y="1" type="line"/>
      <point x="0" y="660" type="line"/>
      <point x="1" y="660" type="line"/>
      <point x="1" y="1" type="line"/>
    </contour>
  </outline>
</glyph>
<glyph name="_67" format="2">
  <advance width="200"/>
  <unicode hex="0143"/>
  
  <outline>
    <component base="cap" xOffset="0" yOffset="0" />
    <component base="cap" xOffset="0" yOffset="669" />
    <contour>
      <point x="0" y="1" type="line"/>
      <point x="0" y="670" type="line"/>
      <point x="1" y="670" type="line"/>
      <point x="1" y="1" type="line"/>
    </contour>
  </outline>
</glyph>
<glyph name="_76" format="2">
  <advance width="200"/>
  <unicode hex="014C"/>
  <unicode hex="004D"/>
  <outline>
    <component base="cap" xOffset="0" yOffset="0" />
    <component base="cap" xOffset="0" yOffset="759" />
    <contour>
      <point x="0" y="1" type="line"/>
      <point x="0" y="760" type="line"/>
      <point x="1" y="760" type="line"/>
      <point x="1" y="1" type="line"/>
    </contour>
  </outline>
</glyph>
<glyph name="_81" format="2">
  <advance width="200"/>
  <unicode hex="0151"/>
  
  <outline>
    <component base="cap" xOffset="0" yOffset="0" />
    <component base="cap" xOffset="0" yOffset="809" />
    <contour>
      <point x="0" y="1" type="line"/>
      <point x="0" y="810" type="line"/>
      <point x="1" y="810" type="line"/>
      <point x="1" y="1" type="line"/>
    </contour>
  </outline>
</glyph>
<glyph name="_84" format="2">
  <advance width="200"/>
  <unicode hex="0154"/>
  <unicode hex="0051"/>
  <outline>
    <component base="cap" xOffset="0" yOffset="0" />
    <component base="cap" xOffset="0" yOffset="839" />
    <contour>
      <point x="0" y="1" type="line"/>
      <point x="0" y="840" type="line"/>
      <point x="1" y="840" type="line"/>
      <point x="1" y="1" type="line"/>
    </contour>
  </outline>
</glyph>
<glyph name="_88" format="2">
  <advance width="200"/>
  <unicode hex="0158"/>
  <unicode hex="0053"/>
  <outline>
    <component base="cap" xOffset="0" yOffset="0" />
    <component base="cap" xOffset="0" yOffset="879" />
    <contour>
      <point x="0" y="1" type="line"/>
      <point x="0" y="880" type="line"/>
      <point x="1" y="880" type="line"/>
      <point x="1" y="1" type="line"/>
    </contour>
  </outline>
</glyph>
<glyph name="_99" format="2">
  <advance width="200"/>
  <unicode hex="0163"/>
  <unicode hex="0059"/>
  <outline>
    <component base="cap" xOffset="0" yOffset="0" />
    <component base="cap" xOffset="0" yOffset="989" />
    <contour>
      <point x="0" y="1" type="line"/>
      <point x="0" y="990" type="line"/>
      <point x="1" y="990" type="line"/>
      <point x="1" y="1" type="line"/>
    </contour>
  </outline>
</glyph>
<glyph name="_3.center" format="2">
  <advance width="200"/>
  <unicode hex="0403"/>
  
  <outline>
    <component base="cap" xOffset="0" yOffset="485" />
    <component base="cap" xOffset="0" yOffset="514" />
    <contour>
      <point x="0" y="486" type="line"/>
      <point x="0" y="515" type="line"/>
      <point x="1" y="515" type="line"/>
      <point x="1" y="486" type="line"/>
    </contour>
  </outline>
</glyph>
<glyph name="_9.center" format="2">
  <advance width="200"/>
  <unicode hex="0409"/>
  
  <outline>
    <component base="cap" xOffset="0" yOffset="455" />
    <component base="cap" xOffset="0" yOffset="544" />
    <contour>
      <point x="0" y="456" type="line"/>
      <point x="0" y="545" type="line"/>
      <point x="1" y="545" type="line"/>
      <point x="1" y="456" type="line"/>
    </contour>
  </outline>
</glyph>
<glyph name="_11.center" format="2">
  <advance width="200"/>
  <unicode hex="040B"/>
  
  <outline>
    <component base="cap" xOffset="0" yOffset="445" />
    <component base="cap" xOffset="0" yOffset="554" />
    <contour>
      <point x="0" y="446" type="line"/>
      <point x="0" y="555" type="line"/>
      <point x="1" y="555" type="line"/>
      <point x="1" y="446" type="line"/>
    </contour>
  </outline>
</glyph>
<glyph name="_17.center" format="2">
  <advance width="200"/>
  <unicode hex="0411"/>
  
  <outline>
    <component base="cap" xOffset="0" yOffset="415" />
    <component base="cap" xOffset="0" yOffset="584" />
    <contour>
      <point x="0" y="416" type="line"/>
      <point x="0" y="585" type="line"/>
      <point x="1" y="585" type="line"/>
      <point x="1" y="416" type="line"/>
    </contour>
  </outline>
</glyph>
<glyph name="_33.center" format="2">
  <advance width="200"/>
  <unicode hex="0421"/>
  
  <outline>
    <component base="cap" xOffset="0" yOffset="335" />
    <component base="cap" xOffset="0" yOffset="664" />
    <contour>
      <point x="0" y="336" type="line"/>
      <point x="0" y="665" type="line"/>
      <point x="1" y="665" type="line"/>
      <point x="1" y="336" type="line"/>
    </contour>
  </outline>
</glyph>
<glyph name="_67.center" format="2">
  <advance width="200"/>
  <unicode hex="0443"/>
  
  <outline>
    <component base="cap" xOffset="0" yOffset="165" />
    <component base="cap" xOffset="0" yOffset="834" />
    <contour>
      <point x="0" y="166" type="line"/>
      <point x="0" y="835" type="line"/>
      <point x="1" y="835" type="line"/>
      <point x="1" y="166" type="line"/>
    </contour>
  </outline>
</glyph>
<glyph name="_79.center" format="2">
  <advance width="200"/>
  <unicode hex="044F"/>
  
  <outline>
    <component base="cap" xOffset="0" yOffset="105" />
    <component base="cap" xOffset="0" yOffset="894" />
    <contour>
      <point x="0" y="106" type="line"/>
      <point x="0" y="895" type="line"/>
      <point x="1" y="895" type="line"/>
      <point x="1" y="106" type="line"/>
    </contour>
  </outline>
</glyph>
<glyph name="_88.center" format="2">
  <advance width="200"/>
  <unicode hex="0458"/>
  
  <outline>
    <component base="cap" xOffset="0" yOffset="60" />
    <component base="cap" xOffset="0" yOffset="939" />
    <contour>
      <point x="0" y="61" type="line"/>
      <point x="0" y="940" type="line"/>
      <point x="1" y="940" type="line"/>
      <point x="1" y="61" type="line"/>
    </contour>
  </outline>
</glyph>
<glyph name="_90.center" format="2">
  <advance width="200"/>
  <unicode hex="045A"/>
  
  <outline>
    <component base="cap" xOffset="0" yOffset="50" />
    <component base="cap" xOffset="0" yOffset="949" />
    <contour>
      <point x="0" y="51" type="line"/>
      <point x="0" y="950" type="line"/>
      <point x="1" y="950" type="line"/>
      <point x="1" y="51" type="line"/>
    </contour>
  </outline>
</glyph>
<glyph name="_94.center" format="2">
  <advance width="200"/>
  <unicode hex="045E"/>
  
  <outline>
    <component base="cap" xOffset="0" yOffset="30" />
    <component base="cap" xOffset="0" yOffset="969" />
    <contour>
      <point x="0" y="31" type="line"/>
      <point x="0" y="970" type="line"/>
      <point x="1" y="970" type="line"/>
      <point x="1" y="31" type="line"/>
    </contour>
  </outline>
</glyph>
<glyph name="_10.clip.center" format="2">
  <advance width="200"/>
  
  <outline>
    <contour>
        <point x="0.000" y="527.500"/>

        <point x="22.500" y="550.000"/>
        <point x="50.000" y="550.000" type="curve" smooth="yes"/>
        <point x="-49.000" y="550.000" type="line"/>
        <point x="-21.500" y="550.000"/>

        <point x="1.000" y="527.500"/>
        <point x="1.000" y="500.000" type="curve" smooth="yes"/>
        <point x="1.000" y="500.000" type="line"/>
        <point x="1.000" y="472.500"/>

        <point x="-21.500" y="450.000"/>
        <point x="-49.000" y="450.000" type="curve" smooth="yes"/>
        <point x="50.000" y="450.000" type="line"/>
        <point x="22.500" y="450.000"/>

        <point x="0.000" y="472.500"/>
        <point x="0.000" y="500.000" type="curve" smooth="yes"/>
        <point x="0.000" y="500.000" type="line"/>
    </contour>
  </outline>
</glyph>
<glyph name="_16.clip.center" format="2">
  <advance width="200"/>
  
  <outline>
    <contour>
        <point x="0.000" y="544.000"/>

        <point x="36.000" y="580.000"/>
        <point x="80.000" y="580.000" type="curve" smooth="yes"/>
        <point x="-79.000" y="580.000" type="line"/>
        <point x="-35.000" y="580.000"/>

        <point x="1.000" y="544.000"/>
        <point x="1.000" y="500.000" type="curve" smooth="yes"/>
        <point x="1.000" y="500.000" type="line"/>
        <point x="1.000" y="456.000"/>

        <point x="-35.000" y="420.000"/>
        <point x="-79.000" y="420.000" type="curve" smooth="yes"/>
        <point x="80.000" y="420.000" type="line"/>
        <point x="36.000" y="420.000"/>

        <point x="0.000" y="456.000"/>
        <point x="0.000" y="500.000" type="curve" smooth="yes"/>
        <point x="0.000" y="500.000" type="line"/>
    </contour>
  </outline>
</glyph>
<glyph name="_18.clip" format="2">
  <advance width="200"/>
  
  <outline>
    <contour>
        <point x="0.000" y="139.500"/>

        <point x="40.500" y="180.000"/>
        <point x="90.000" y="180.000" type="curve" smooth="yes"/>
        <point x="-89.000" y="180.000" type="line"/>
        <point x="-39.500" y="180.000"/>

        <point x="1.000" y="139.500"/>
        <point x="1.000" y="90.000" type="curve" smooth="yes"/>
        <point x="1.000" y="90.000" type="line"/>
        <point x="1.000" y="40.500"/>

        <point x="-39.500" y="0.000"/>
        <point x="-89.000" y="0.000" type="curve" smooth="yes"/>
        <point x="90.000" y="0.000" type="line"/>
        <point x="40.500" y="0.000"/>

        <point x="0.000" y="40.500"/>
        <point x="0.000" y="90.000" type="curve" smooth="yes"/>
        <point x="0.000" y="90.000" type="line"/>
    </contour>
  </outline>
</glyph>
<glyph name="_3.clip" format="2">
  <advance width="200"/>
  
  <outline>
    <contour>
        <point x="0.000" y="23.250"/>

        <point x="6.750" y="30.000"/>
        <point x="15.000" y="30.000" type="curve" smooth="yes"/>
        <point x="-14.000" y="30.000" type="line"/>
        <point x="-5.750" y="30.000"/>

        <point x="1.000" y="23.250"/>
        <point x="1.000" y="15.000" type="curve" smooth="yes"/>
        <point x="1.000" y="15.000" type="line"/>
        <point x="1.000" y="6.750"/>

        <point x="-5.750" y="0.000"/>
        <point x="-14.000" y="0.000" type="curve" smooth="yes"/>
        <point x="15.000" y="0.000" type="line"/>
        <point x="6.750" y="0.000"/>

        <point x="0.000" y="6.750"/>
        <point x="0.000" y="15.000" type="curve" smooth="yes"/>
        <point x="0.000" y="15.000" type="line"/>
    </contour>
  </outline>
</glyph>
<glyph name="_7.clip.center" format="2">
  <advance width="200"/>
  
  <outline>
    <contour>
        <point x="0.000" y="519.250"/>

        <point x="15.750" y="535.000"/>
        <point x="35.000" y="535.000" type="curve" smooth="yes"/>
        <point x="-34.000" y="535.000" type="line"/>
        <point x="-14.750" y="535.000"/>

        <point x="1.000" y="519.250"/>
        <point x="1.000" y="500.000" type="curve" smooth="yes"/>
        <point x="1.000" y="500.000" type="line"/>
        <point x="1.000" y="480.750"/>

        <point x="-14.750" y="465.000"/>
        <point x="-34.000" y="465.000" type="curve" smooth="yes"/>
        <point x="35.000" y="465.000" type="line"/>
        <point x="15.750" y="465.000"/>

        <point x="0.000" y="480.750"/>
        <point x="0.000" y="500.000" type="curve" smooth="yes"/>
        <point x="0.000" y="500.000" type="line"/>
    </contour>
  </outline>
</glyph>
<glyph name="_9.clip.center" format="2">
  <advance width="200"/>
  
  <outline>
    <contour>
        <point x="0.000" y="524.750"/>

        <point x="20.250" y="545.000"/>
        <point x="45.000" y="545.000" type="curve" smooth="yes"/>
        <point x="-44.000" y="545.000" type="line"/>
        <point x="-19.250" y="545.000"/>

        <point x="1.000" y="524.750"/>
        <point x="1.000" y="500.000" type="curve" smooth="yes"/>
        <point x="1.000" y="500.000" type="line"/>
        <point x="1.000" y="475.250"/>

        <point x="-19.250" y="455.000"/>
        <point x="-44.000" y="455.000" type="curve" smooth="yes"/>
        <point x="45.000" y="455.000" type="line"/>
        <point x="20.250" y="455.000"/>

        <point x="0.000" y="475.250"/>
        <point x="0.000" y="500.000" type="curve" smooth="yes"/>
        <point x="0.000" y="500.000" type="line"/>
    </contour>
  </outline>
</glyph>
